<svg width="120" height="45" viewBox="0 0 120 45" fill="none" xmlns="http://www.w3.org/2000/svg">
<rect x="0.5" y="5.5" width="119" height="39" rx="19.5" fill="white" stroke="#888888"/>
<path d="M29.968 32.232H20.272V28.312H27.568V27.624H20.304V25.976H29.68V29.832H22.384V30.536H29.968V32.232ZM31.664 22.648H29.68V25.4H27.568V18.008H29.68V20.936H31.664V22.648ZM18.544 21.864C18.544 19.896 20.192 18.568 22.32 18.568C24.448 18.568 26.112 19.896 26.112 21.864C26.112 23.816 24.448 25.192 22.32 25.192C20.16 25.192 18.544 23.816 18.544 21.864ZM20.592 21.864C20.592 22.872 21.328 23.512 22.32 23.512C23.312 23.512 24.064 22.888 24.064 21.864C24.064 20.856 23.312 20.216 22.32 20.216C21.312 20.216 20.592 20.84 20.592 21.864ZM44.1478 32.088H34.3238V27.176H44.1478V32.088ZM40.8518 25.656C39.3958 25.912 37.1398 26.088 35.5558 26.088C34.7238 26.088 33.8438 26.056 32.9958 26.04V21.688H37.4278V20.6H33.0118V18.952H39.5718V23.24H35.1238V24.392C35.4598 24.408 35.8438 24.424 36.2598 24.424C37.7478 24.424 39.5878 24.312 40.6918 24.072L40.8518 25.656ZM44.1478 26.488H42.0198V18.008H44.1478V26.488ZM42.0358 30.472V28.776H36.4678V30.472H42.0358ZM62.2266 25.336H60.0666V22.136H57.8586V20.456H60.0666V18.008H62.2266V25.336ZM62.5466 32.152H52.6906V28.28H60.0666V27.592H52.6906V25.928H62.2266V29.8H54.8186V30.488H62.5466V32.152ZM58.8666 23.496L57.7466 25.176C56.6586 24.84 55.2346 23.656 54.7226 22.456C54.2906 23.8 52.6586 25.16 51.2986 25.592L50.2426 23.912C52.3706 23.176 53.5866 21.528 53.5866 19.432V18.6H55.7786V19.32C55.7786 21.608 57.0746 22.872 58.8666 23.496ZM76.1344 29.336C76.1344 31.048 74.2464 32.12 71.0944 32.12C67.9584 32.12 66.0704 31.048 66.0704 29.336C66.0704 27.592 67.9584 26.504 71.0944 26.504C74.2464 26.504 76.1344 27.592 76.1344 29.336ZM64.7584 20.648V18.92H72.2784V20.648H69.6544C69.8624 22.616 71.1904 23.784 72.8704 24.328L71.7184 25.992C70.6144 25.64 69.1104 24.472 68.5824 23.272C68.2144 24.552 66.5504 25.96 65.1744 26.392L64.1024 24.712C66.1024 24.04 67.2864 22.632 67.4304 20.648H64.7584ZM71.9584 23.032V21.32H73.9104V18.008H76.0544V26.552H73.9104V23.032H71.9584ZM71.0944 28.184C69.2864 28.184 68.2144 28.616 68.2144 29.336C68.2144 30.024 69.2864 30.456 71.0944 30.456C72.9504 30.456 73.9904 30.024 73.9904 29.336C73.9904 28.616 72.9504 28.184 71.0944 28.184ZM86.2341 23.064H77.9461V21.4H86.2341V23.064ZM79.9941 20.568V18.872H84.3941V20.568H79.9941ZM89.2581 18.008V23.8H91.1941V25.528H89.2581V32.264H87.1461V18.008H89.2581ZM78.6981 26.6C78.6981 24.744 80.2021 23.544 82.1701 23.544C84.1221 23.544 85.6741 24.76 85.6741 26.6C85.6741 28.456 84.1221 29.672 82.1701 29.672C80.2021 29.672 78.6981 28.44 78.6981 26.6ZM80.5701 26.6C80.5701 27.544 81.2741 28.152 82.1701 28.152C83.0341 28.152 83.7861 27.544 83.7861 26.6C83.7861 25.672 83.0661 25.048 82.1701 25.048C81.2741 25.048 80.5701 25.672 80.5701 26.6ZM103.758 32.264H101.63V18.008H103.758V32.264ZM99.4539 19.48C99.3259 23.64 97.6299 27.256 93.0059 29.8L91.8059 28.136C94.9259 26.68 96.9259 23.944 97.2139 21.208H92.6859V19.48H99.4539Z" fill="#888888"/>
</svg>
