<svg width="80" height="80" viewBox="0 0 80 80" fill="none" xmlns="http://www.w3.org/2000/svg">
<path d="M66.6667 62.2233L68 64C68.1857 64.2476 68.2988 64.542 68.3266 64.8503C68.3544 65.1586 68.2958 65.4685 68.1574 65.7453C68.019 66.0222 67.8062 66.255 67.5429 66.4177C67.2796 66.5805 66.9762 66.6667 66.6667 66.6667H13.3334C13.0238 66.6667 12.7204 66.5805 12.4571 66.4177C12.1938 66.255 11.9811 66.0222 11.8426 65.7453C11.7042 65.4685 11.6456 65.1586 11.6734 64.8503C11.7012 64.542 11.8143 64.2476 12 64L13.3334 62.2233V33.3333C13.3334 26.2609 16.1429 19.4781 21.1438 14.4771C26.1448 9.47617 32.9276 6.66666 40 6.66666C47.0725 6.66666 53.8552 9.47617 58.8562 14.4771C63.8572 19.4781 66.6667 26.2609 66.6667 33.3333V62.2233ZM31.6667 70H48.3334C48.3334 72.2101 47.4554 74.3298 45.8926 75.8925C44.3298 77.4554 42.2102 78.3333 40 78.3333C37.7899 78.3333 35.6703 77.4554 34.1075 75.8925C32.5447 74.3298 31.6667 72.2101 31.6667 70Z" fill="#CCCCCC"/>
<ellipse cx="63.3333" cy="20" rx="13.3333" ry="13.3333" fill="#FE1901"/>
</svg>
